<svg xmlns="http://www.w3.org/2000/svg" viewBox="0 0 32 32" width="32" height="32">
  <!-- Background circle with dark reddish-brown -->
  <circle cx="16" cy="16" r="15" fill="#5c3a2e" stroke="#4a2d23" stroke-width="1.5"/>
  
  <!-- Heart icon (Font Awesome heart style) -->
  <path d="M17 26.5c-.3 0-.6-.1-.8-.3-4.8-4.3-8-7.2-9.4-10.1-1-2-1.1-3.8-.2-5.4.8-1.5 2.3-2.4 4-2.4 1.3 0 2.5.6 3.4 1.5.5.5.9 1.1 1 1.5.1-.4.5-1 1-1.5.9-.9 2.1-1.5 3.4-1.5 1.7 0 3.2.9 4 2.4.9 1.6.8 3.4-.2 5.4-1.4 2.9-4.6 5.8-9.4 10.1-.2.2-.5.3-.8.3z" 
        fill="#f3e4cf" opacity="0.95" transform="translate(0.5, 0)"/>
  
  <!-- Subtle highlight on heart -->
  <path d="M13.5 11.5c.5-.5 1.2-.8 1.9-.8.3 0 .6.1.9.2-.3-.3-.6-.5-1-.6-.3-.1-.6-.2-.9-.2-1.3 0-2.5.6-3.4 1.5-.2.2-.4.5-.6.8.3-.4.7-.7 1.1-.9z" 
        fill="#fff" opacity="0.3" transform="translate(0.5, 0)"/>
</svg>