<svg version="1.1" xmlns="http://www.w3.org/2000/svg" style="display: block;" viewBox="0 0 2048 1741" width="1000" height="850" preserveAspectRatio="none">
<defs>
	<linearGradient id="Gradient1" gradientUnits="userSpaceOnUse" x1="587.167" y1="504.396" x2="425.618" y2="525.584">
		<stop class="stop0" offset="0" stop-opacity="1" stop-color="rgb(87,59,20)"/>
		<stop class="stop1" offset="1" stop-opacity="1" stop-color="rgb(165,134,92)"/>
	</linearGradient>
	<linearGradient id="Gradient2" gradientUnits="userSpaceOnUse" x1="604.532" y1="352.449" x2="571.207" y2="353.631">
		<stop class="stop0" offset="0" stop-opacity="1" stop-color="rgb(97,70,31)"/>
		<stop class="stop1" offset="1" stop-opacity="1" stop-color="rgb(152,120,74)"/>
	</linearGradient>
	<linearGradient id="Gradient3" gradientUnits="userSpaceOnUse" x1="585.203" y1="262.833" x2="332.05" y2="250.799">
		<stop class="stop0" offset="0" stop-opacity="1" stop-color="rgb(84,58,19)"/>
		<stop class="stop1" offset="1" stop-opacity="1" stop-color="rgb(140,108,67)"/>
	</linearGradient>
	<linearGradient id="Gradient4" gradientUnits="userSpaceOnUse" x1="602.821" y1="330.735" x2="268.896" y2="353.122">
		<stop class="stop0" offset="0" stop-opacity="1" stop-color="rgb(92,63,23)"/>
		<stop class="stop1" offset="1" stop-opacity="1" stop-color="rgb(162,129,85)"/>
	</linearGradient>
	<linearGradient id="Gradient5" gradientUnits="userSpaceOnUse" x1="1786.73" y1="1348.74" x2="1442.57" y2="1207.39">
		<stop class="stop0" offset="0" stop-opacity="1" stop-color="rgb(101,72,32)"/>
		<stop class="stop1" offset="1" stop-opacity="1" stop-color="rgb(129,99,58)"/>
	</linearGradient>
	<linearGradient id="Gradient6" gradientUnits="userSpaceOnUse" x1="1320.4" y1="479.448" x2="991.514" y2="458.71">
		<stop class="stop0" offset="0" stop-opacity="1" stop-color="rgb(137,106,61)"/>
		<stop class="stop1" offset="1" stop-opacity="1" stop-color="rgb(161,127,75)"/>
	</linearGradient>
	<linearGradient id="Gradient7" gradientUnits="userSpaceOnUse" x1="1220.38" y1="862.385" x2="887.519" y2="848.779">
		<stop class="stop0" offset="0" stop-opacity="1" stop-color="rgb(143,113,64)"/>
		<stop class="stop1" offset="1" stop-opacity="1" stop-color="rgb(168,135,84)"/>
	</linearGradient>
	<linearGradient id="Gradient8" gradientUnits="userSpaceOnUse" x1="888.301" y1="1096.89" x2="434.004" y2="1107.3">
		<stop class="stop0" offset="0" stop-opacity="1" stop-color="rgb(87,60,22)"/>
		<stop class="stop1" offset="1" stop-opacity="1" stop-color="rgb(166,133,84)"/>
	</linearGradient>
	<linearGradient id="Gradient9" gradientUnits="userSpaceOnUse" x1="553.833" y1="295.022" x2="177.264" y2="271.55">
		<stop class="stop0" offset="0" stop-opacity="1" stop-color="rgb(94,66,29)"/>
		<stop class="stop1" offset="1" stop-opacity="1" stop-color="rgb(166,134,84)"/>
	</linearGradient>
	<linearGradient id="Gradient10" gradientUnits="userSpaceOnUse" x1="1950.54" y1="532.075" x2="1329.25" y2="570.551">
		<stop class="stop0" offset="0" stop-opacity="1" stop-color="rgb(90,64,27)"/>
		<stop class="stop1" offset="1" stop-opacity="1" stop-color="rgb(138,106,60)"/>
	</linearGradient>
	<linearGradient id="Gradient11" gradientUnits="userSpaceOnUse" x1="571.151" y1="1058.85" x2="75.6761" y2="1072.05">
		<stop class="stop0" offset="0" stop-opacity="1" stop-color="rgb(87,60,22)"/>
		<stop class="stop1" offset="1" stop-opacity="1" stop-color="rgb(166,132,82)"/>
	</linearGradient>
	<linearGradient id="Gradient12" gradientUnits="userSpaceOnUse" x1="2044.08" y1="882.663" x2="1221.92" y2="886.99">
		<stop class="stop0" offset="0" stop-opacity="1" stop-color="rgb(84,58,20)"/>
		<stop class="stop1" offset="1" stop-opacity="1" stop-color="rgb(143,112,66)"/>
	</linearGradient>
</defs>
<path transform="translate(0,0)" fill="rgb(255,248,246)" d="M 0 0 L 2048 0 L 2048 863.716 L 2048 882.358 L 2048 1741 L 0 1741 L 0 0 z"/>
<path transform="translate(0,0)" fill="url(#Gradient12)" d="M 1968.19 865.978 C 1977.72 846.437 2021.67 722.721 2028.57 718.445 C 2034.62 718.946 2041.27 724.986 2038.65 731.676 C 2033.59 744.652 2027.9 757.343 2022.61 770.229 C 2007.9 805.329 1994.06 840.785 1981.09 876.565 C 1972.25 901.291 1961.88 929.193 1959.43 955.385 C 1980.58 938.769 1996.06 918.05 2013.8 898.179 C 2022.95 887.927 2036.4 870.225 2048 863.716 L 2048 882.358 C 2020.95 908.383 1998.15 941.509 1969.13 965.33 C 1963.82 970.501 1952.12 967.79 1949.35 961.112 C 1941.41 941.92 1954.75 907.754 1960.56 889.071 C 1937.45 901.455 1907.5 917.81 1896.01 881.095 C 1878.5 896.788 1857.5 918.625 1837.61 893.807 C 1837.18 894.284 1836.74 894.755 1836.29 895.22 C 1824.91 906.958 1796.62 933.333 1778.31 915.77 C 1770.87 908.636 1771.38 897.018 1771.78 887.327 C 1750.87 904.065 1672.71 955.218 1669.11 894.891 C 1668.95 892.221 1670.24 885.605 1670.72 882.66 C 1657.47 886.577 1646.23 890.994 1633.39 896.033 C 1634.35 912.293 1626.45 918.122 1613.7 925.903 C 1603.65 932.033 1591.15 932.494 1586.03 920.209 C 1578.86 903.004 1614.08 894.511 1617.6 884.925 C 1616.58 881.693 1617.51 882.863 1615.11 881.019 C 1611.93 881.261 1601.66 888.389 1598.28 890.354 C 1575.02 903.893 1547.52 915.22 1536.29 881.092 C 1519.38 896.185 1493.42 921.167 1477 890.932 C 1443.96 916.849 1426.05 926.893 1385.29 939.013 C 1393.15 958.638 1393.18 981.047 1389.67 1001.63 C 1387.2 1016.15 1380.85 1041.03 1367.65 1049.74 C 1364.36 1051.91 1360.55 1052.54 1356.76 1051.46 C 1349.89 1049.49 1344.04 1043.49 1340.92 1037.23 C 1326.69 1008.69 1359.25 919.78 1369.67 889.499 C 1355.81 893.339 1351.18 894.027 1336.8 894.113 C 1323.91 918.006 1292.85 935.208 1274.22 905.646 C 1218.79 950.369 1211.21 894.647 1231.47 854.912 C 1234.03 849.908 1235.92 840.835 1241.86 838.798 C 1245.75 840.535 1248.62 843.993 1251.7 847.092 C 1245.85 861.076 1230.96 892.78 1234.06 906.722 C 1244.89 920.736 1288.1 870.129 1294.14 861.509 C 1297.64 856.501 1295.26 850.859 1302.05 846.33 C 1315.76 837.183 1340.29 841.331 1344.88 859.056 C 1347.02 867.366 1345.39 874.198 1343.73 882.299 C 1350.24 880.81 1370.11 874.596 1375.73 867.91 C 1388.71 851.776 1434.3 704.73 1468.35 757.544 C 1484.37 782.398 1428.53 849.728 1408.03 865.228 C 1404.73 867.726 1394.45 876.457 1392.28 880.009 C 1385.81 890.643 1378.43 915.044 1375.08 926.225 C 1410.58 917.621 1444.74 900.321 1471.57 875.517 C 1482.89 865.05 1521 823.094 1534.89 851.996 C 1534.93 855.804 1535.58 854.28 1533.19 856.857 C 1528.78 857.207 1528.35 856.195 1523.99 854.193 L 1522.3 854.926 C 1511.4 859.714 1483.42 877.481 1490.1 891.948 L 1492.52 892.741 C 1512.16 889.743 1532.85 854.999 1544.64 856.126 C 1553.17 861.912 1547.45 882.229 1551.37 891.273 C 1563.43 895.8 1597.66 873.126 1608.47 866.562 C 1603.78 847.274 1611.66 837.278 1626.83 826.749 C 1631.45 823.543 1640.88 825.232 1643.74 830.546 C 1642.39 838.239 1624.21 846.653 1621.29 855.211 C 1618.38 863.777 1624.15 875.715 1627.59 883.385 C 1644.39 876.078 1663.27 871.875 1679.17 865.034 C 1695.83 853.898 1697.8 841.473 1719.48 838.018 C 1738.6 834.971 1743.71 859.087 1734.52 867.337 C 1722.36 870.224 1724.81 857.38 1723.33 850.779 C 1706.57 853.863 1678.11 891.414 1681.72 906.259 C 1686.48 925.837 1740.84 890.082 1749.47 884.304 C 1757.79 878.193 1771.84 871.385 1778.32 863.693 C 1782.14 859.148 1787.3 844.66 1790.97 838.058 C 1791.62 838.414 1792.27 838.774 1792.91 839.139 C 1795.12 840.389 1802.15 844.374 1801.73 847.57 C 1800.67 855.502 1775.06 907.584 1786.99 909.802 C 1803.78 912.922 1838.42 870.014 1849.39 858.007 C 1860.28 846.078 1887.46 833.534 1894.99 852.333 C 1894.35 855.858 1895.15 854.379 1892.27 856.805 C 1888.39 857.152 1887.85 856.209 1883.98 854.503 C 1874.28 857.989 1862.77 864.206 1856.65 872.844 C 1853.17 877.762 1846.15 886.872 1849.14 892.752 C 1860.71 897.38 1888.07 865.364 1896.77 858.281 C 1899.57 856.006 1900.73 856.642 1903.89 856.974 C 1918.41 865.174 1893.03 908.798 1937.13 884.712 C 1947.88 878.836 1958.03 873.442 1968.19 865.978 z"/>
<path transform="translate(0,0)" fill="rgb(255,248,246)" d="M 1372.2 935.762 C 1388.19 956.233 1373.67 1018.17 1356.65 1037.39 C 1354.24 1038.71 1355.45 1038.55 1352.93 1038.13 C 1345.92 1023.88 1365.59 951.735 1372.2 935.762 z"/>
<path transform="translate(0,0)" fill="rgb(255,248,246)" d="M 1455.77 758.913 L 1456.85 760.949 C 1456.1 784.811 1424.49 825.241 1407.95 842.713 C 1407.16 842.225 1407.67 842.627 1406.97 841.031 C 1418.3 815.282 1435.13 777.826 1455.77 758.913 z"/>
<path transform="translate(0,0)" fill="rgb(255,248,246)" d="M 1302.66 875.931 C 1308.57 882.192 1313.67 885.683 1320.82 890.339 C 1314.36 898.832 1310.2 902.471 1301.15 907.88 C 1296.02 909.866 1291.79 912.095 1287.07 908.73 C 1283.43 899.052 1296.83 883.196 1302.66 875.931 z"/>
<path transform="translate(0,0)" fill="rgb(255,248,246)" d="M 1323.77 853.163 C 1325.47 852.985 1329.53 852.354 1330.63 853.284 C 1337.7 859.229 1329.22 876.097 1326.44 881.242 C 1323.47 882.406 1323.2 881.552 1319.26 880.421 C 1315.63 877.886 1310.93 875.409 1310.37 870.883 C 1315.75 865.039 1314.08 864.583 1313.15 857.216 C 1315.59 854.856 1320.3 854.086 1323.77 853.163 z"/>
<path transform="translate(0,0)" fill="url(#Gradient11)" d="M 286.708 578.105 C 289.308 577.929 290.418 577.639 292.864 578.613 L 293.244 580.685 C 283.652 602.26 223.996 614.638 201.044 623.053 C 136.78 646.613 71.4035 701.91 79.8221 777.99 C 91.3613 882.271 168.07 973.854 232.521 1052.02 C 250.248 1073.52 269.088 1095.59 285.188 1118.65 C 295.521 1080.77 304.149 1036.3 312.762 997.664 C 326.591 934.707 341.616 872.019 357.83 809.633 C 367.495 772.56 376.451 732.957 391.4 697.657 C 394.397 690.582 401.183 676.323 409.074 673.909 C 411.244 673.245 413.249 673.561 415.103 674.905 C 426.643 683.262 443.319 826.062 444.937 844.809 C 448.643 886.405 450.45 928.148 450.352 969.908 C 450.197 1008.16 448.145 1046.91 449.231 1085.01 C 451.504 1159.13 461.959 1232.77 480.407 1304.59 C 495.625 1364.08 517.655 1426.38 544.572 1481.67 C 552.797 1497.74 562.274 1512.86 573.511 1527 C 577.123 1531.55 587.561 1539.27 587.781 1544.31 C 575.616 1556.15 557.289 1527.65 551.689 1518.71 C 508.567 1449.87 480.99 1368.22 462.198 1289.51 C 451.609 1243.44 443.368 1196.29 439.359 1149.17 C 434.363 1090.43 437.06 1031.66 436.749 972.907 C 436.24 876.682 430.55 785.935 407.007 692.237 C 386.836 733.839 374.625 792.088 363.36 837.69 C 351.345 885.827 339.885 934.1 328.981 982.501 C 317.638 1032.66 307.086 1082.1 294.22 1131.93 C 303.075 1148.76 312.142 1164.73 319.337 1182.41 C 339.97 1233.09 356.915 1311.51 344.518 1365.65 C 340.393 1383.66 332.402 1400.99 316.166 1411.01 C 303.948 1418.55 287.405 1421.87 273.334 1418.5 C 262.993 1416.02 255.306 1409.47 249.944 1400.5 C 217.326 1345.96 265.247 1196.77 280.842 1134.99 C 260.928 1104.76 235.757 1076.77 212.692 1048.92 C 177.608 1006.54 140.852 961.596 113.178 914.011 C 84.7822 864.608 55.2961 795.392 70.5795 737.905 C 89.0241 668.527 166.564 627.73 230.503 609.012 C 240.977 605.946 249.964 604.087 260.258 599.814 C 272.17 594.87 276.966 583.668 286.708 578.105 z"/>
<path transform="translate(0,0)" fill="rgb(255,248,246)" d="M 289.017 1151.56 C 294.299 1155.55 304.659 1183.98 307.636 1191.36 C 326.258 1237.55 363.301 1390.93 298.671 1413.96 C 293.339 1414.88 288.481 1415.38 283.176 1413.91 C 273.616 1411.26 266.792 1404.55 262.074 1396.09 C 233.763 1345.31 273.552 1207.72 289.017 1151.56 z"/>
<path transform="translate(0,0)" fill="url(#Gradient10)" d="M 1480.31 439.734 C 1484.86 439.537 1489.7 445.953 1492.54 449.199 C 1469.55 468.379 1461.82 467.56 1475.08 500.026 C 1489.34 492.902 1512.78 485.981 1528.29 482.342 C 1525.41 459.952 1535.24 448.221 1555.31 439.651 C 1559.01 442.12 1559.62 442.4 1562.47 445.697 C 1565.73 461.789 1528.34 453.405 1548.03 499.894 C 1567.19 490.936 1584.13 488.578 1601.51 480.93 C 1614.91 472.05 1621.85 460.557 1639.18 458.872 C 1647.11 458.1 1659.52 467.183 1652.96 473.854 C 1649.17 473.687 1648.7 472.63 1645.19 470.432 C 1630.1 476.304 1612.14 487.82 1609.21 505.74 C 1608.85 507.884 1609.71 508.23 1611.03 509.409 C 1623.69 510.894 1650.12 480.238 1660.15 473.009 C 1661.22 472.242 1665.27 473.132 1666.33 474.045 C 1675.29 481.789 1665.26 499.722 1672.43 507.83 C 1681.94 512.74 1716.62 490.894 1722.95 485.841 C 1735.28 476.016 1741.52 464.756 1756.23 460.386 C 1764.47 457.938 1777.13 455.718 1784.31 460.417 C 1785.56 461.359 1785.38 461.089 1786.84 460.972 C 1789.62 457.15 1792.49 453.394 1795.44 449.709 C 1799.32 451.696 1803.58 453.56 1805.76 457.449 C 1812.43 469.314 1803.5 496.266 1800.18 509.524 C 1821.25 495.777 1840.63 488.512 1856.63 468.804 C 1866.86 456.2 1889.08 449.159 1897.81 467.849 C 1907.6 488.81 1863.79 503.813 1850.19 511.001 C 1844.4 514.009 1843.76 519.969 1846.36 525.155 C 1849.48 531.355 1863.16 528.305 1868.49 526.811 C 1894.76 519.635 1916.6 500.706 1938.2 484.971 C 1943.37 481.209 1947.31 484.449 1949.51 489.422 C 1949.94 497.71 1942.47 501.188 1936.92 505.827 C 1913.18 525.656 1832.44 571.753 1832.96 506.825 C 1823.67 513.282 1803.73 523.549 1794.93 531.91 C 1791.58 535.099 1790.01 540.416 1788.4 544.755 C 1774.26 582.874 1757.57 628.026 1729.72 658.423 C 1727.67 660.266 1725.56 662.041 1723.4 663.744 C 1709.5 674.462 1693.86 667.244 1685.32 654.327 C 1651.73 603.484 1747.03 544.965 1780.19 521.903 C 1785.42 508.16 1789.49 492.838 1793.5 478.594 C 1780.35 496.893 1740.52 545.986 1725.94 502.237 C 1700.62 517.542 1671.55 535.563 1656.18 497.619 C 1637.58 516.297 1602.41 541.11 1595.49 497.491 C 1580.36 502.133 1568.53 506.525 1553.93 512.536 C 1554.41 521.681 1554.06 525.282 1547.44 532.382 C 1539.46 540.95 1519.83 553.159 1509.87 541.758 C 1494.6 524.278 1525.38 513.345 1535.49 504.917 C 1537.84 502.965 1537.65 501.654 1537.57 499.028 C 1536.81 497.968 1535.42 495.789 1534.3 495.693 C 1523.66 494.777 1490.05 508.885 1481.72 512.286 C 1481.44 523.125 1481.17 525.596 1472.21 535.38 C 1462.72 545.73 1431.46 553.101 1432.88 531.176 C 1433.5 521.696 1451.77 511.579 1459.32 507.746 C 1461.63 506.572 1465.01 504.659 1465.77 501.801 C 1464.24 498.636 1465.04 499.153 1462.47 497.529 C 1458.62 498.168 1449.73 504.255 1446.09 506.596 C 1425.71 519.699 1392.16 531.882 1384.31 497.695 C 1373.65 506.511 1360.67 518.899 1346.66 521.505 C 1334.04 523.852 1325.71 515.572 1324.32 503.307 C 1321.88 481.699 1344.86 463.918 1363.63 459.114 C 1367.43 458.14 1378.98 462.021 1381.6 465.506 C 1383.5 468.012 1383.41 467.911 1383.1 470.882 C 1380.62 473.753 1381.63 473.401 1378.47 474.405 C 1377.28 473.78 1372.2 471.097 1371.2 471.354 C 1357.83 474.784 1337.46 490.956 1336.57 505.176 C 1337.83 508.482 1336.75 507.29 1339.91 508.879 C 1358.03 508.138 1380.18 472.039 1391.91 472.561 C 1401.57 479.29 1394.37 500.432 1398.99 506.675 C 1405.46 515.418 1449.84 486.985 1456 483.401 C 1451.54 459.2 1461.09 452.116 1480.31 439.734 z"/>
<path transform="translate(0,0)" fill="rgb(255,248,246)" d="M 1770.67 546.886 C 1770.83 549.931 1766.07 561.349 1764.55 564.893 C 1752.29 593.227 1739.71 623.317 1719.06 646.717 C 1712.56 654.077 1703.07 662.912 1694.42 654.006 C 1671.09 617.466 1745.27 565.732 1770.67 546.886 z"/>
<path transform="translate(0,0)" fill="rgb(255,248,246)" d="M 1772.79 469.184 C 1775.18 468.98 1776.7 469.118 1779.05 469.261 L 1779.58 470.416 C 1772.15 480.414 1754.08 499.068 1744.34 506.707 C 1743.37 507.308 1741.9 507.905 1740.82 508.397 L 1739.31 507.018 C 1735.25 488.104 1757.34 473.883 1772.79 469.184 z"/>
<path transform="translate(0,0)" fill="rgb(233,214,183)" d="M 1883.16 468.77 L 1884.02 469.128 L 1884.58 470.641 C 1880.45 478.86 1869.29 485.533 1861.5 489.922 L 1860.39 489.722 L 1860.75 487.924 C 1868.21 479.147 1873.28 474.67 1883.16 468.77 z"/>
<path transform="translate(0,0)" fill="rgb(138,107,62)" d="M 1533.75 520.963 C 1535.38 522.717 1534.81 521.672 1534.89 524.428 C 1532.36 527.613 1531.24 527.756 1527.37 529.485 L 1526.02 527.891 C 1527.3 525.194 1531.19 522.85 1533.75 520.963 z"/>
<path transform="translate(0,0)" fill="rgb(138,107,62)" d="M 1321.42 1100.75 C 1314.55 1103.51 1263.19 1132.52 1265.5 1112.16 C 1271.58 1104.17 1324.4 1084.46 1336.71 1079.01 C 1344.42 1075.58 1357.43 1074.14 1360.96 1084.89 C 1358.52 1087.78 1355.78 1090.81 1352.85 1093.19 C 1310.2 1127.93 1285.8 1180.7 1256.07 1225.61 L 1259.55 1228.34 C 1278.62 1197.62 1347.17 1115.92 1377.41 1098.93 C 1383.97 1095.25 1390.88 1093.27 1398.31 1095.64 C 1405.11 1097.82 1410.04 1103.33 1412.96 1109.68 C 1426.94 1140.17 1400.84 1211.65 1389.35 1242.3 C 1403.71 1244.36 1406.8 1245.18 1416.35 1255.75 C 1408.9 1255.71 1393.65 1253.67 1385.67 1252.79 C 1377.15 1275.51 1368.6 1298.1 1361.05 1321.19 C 1358.6 1328.69 1357.11 1345.05 1353.52 1350.15 C 1351.66 1350.93 1351.18 1351.26 1349.16 1350.6 C 1346.97 1349.89 1345.19 1347.92 1344.22 1345.88 C 1337.57 1331.88 1363.53 1270.01 1369.07 1252.98 C 1333.18 1252.44 1287.22 1258.42 1251.52 1265.44 C 1240.16 1278.42 1178.59 1370.41 1174.83 1371.72 C 1169.7 1370.82 1167.29 1366.82 1164.18 1362.8 C 1174.52 1339.75 1199.09 1296.7 1211.4 1274.26 C 1193.99 1277.21 1176.81 1282.49 1159.71 1286.83 C 1149.81 1289.34 1144.42 1292.22 1137.73 1282.43 L 1138.49 1280.44 C 1146.8 1273.76 1207.19 1261.22 1219.97 1258.32 C 1227.92 1246.39 1236.19 1229.53 1243.83 1216.85 C 1266.86 1178.62 1292.01 1133.93 1321.42 1100.75 z"/>
<path transform="translate(0,0)" fill="rgb(233,214,183)" d="M 1256.07 1225.61 L 1259.55 1228.34 C 1256.65 1233.14 1248.63 1243.37 1244.94 1248.49 C 1246.99 1239.84 1251.29 1233.02 1256.07 1225.61 z"/>
<path transform="translate(0,0)" fill="rgb(255,248,246)" d="M 1396.44 1103.7 L 1397.78 1103.81 C 1419.4 1115.26 1379.91 1224.32 1373.42 1241.9 C 1346.57 1239.64 1301.08 1244.44 1274.75 1248.41 L 1262.76 1250.26 C 1283.67 1219.62 1366.56 1117.69 1396.44 1103.7 z"/>
<path transform="translate(0,0)" fill="url(#Gradient9)" d="M 264.623 258.826 C 291.68 183.369 345.64 124.698 431.397 124.215 C 480.295 123.939 530.577 130.566 567.996 165.337 C 563.364 164.727 564.873 164.28 561.147 166.134 C 558.277 173.448 563.815 175.013 564.801 181.13 C 562.962 179.657 556.15 172.27 554.183 170.183 C 545.737 161.222 533.25 154.065 521.906 149.405 C 478.377 131.521 413.374 128.078 369.81 146.251 C 321.621 166.354 294.152 216.368 275.65 262.332 C 313.175 281.264 318.086 318.91 317.68 357.739 C 317.569 368.364 315.101 379.691 315.216 390.244 C 316.772 400.484 318.641 407.305 320.501 417.875 C 323.646 435.757 310.849 449.185 292.89 443.839 C 289.679 442.884 283.581 423.039 281.35 419.414 C 278.909 415.448 275.642 412.459 272.015 408.87 C 254.814 414.389 255.959 424.905 247.054 437.705 C 245.391 440.096 239.61 440.31 236.949 436.995 C 235.996 429.607 242.843 419.508 247.181 413.704 C 252.788 406.2 258.447 403.377 266.842 399.875 C 263.533 393.405 260.182 386.958 256.787 380.534 C 251.72 390.708 247.166 399.653 238.693 407.473 C 222.18 422.938 198.021 419.264 184.221 402.005 C 165.609 378.727 168.542 340.701 179.078 314.493 C 180.555 311.605 183.804 303.812 186.246 302.005 C 197.613 293.594 207.204 279.875 217.197 271.117 C 229.653 260.199 248.571 257.023 264.623 258.826 z"/>
<path transform="translate(0,0)" fill="rgb(255,248,246)" d="M 272.588 272.548 C 303.595 292.501 308.211 349.988 300.869 383.759 C 300.584 385.069 298.008 385.329 296.714 385.687 C 282.17 384.538 283.353 375.688 275.851 364.48 C 279.02 344.75 273.095 332.958 263.705 316.59 C 264.372 301.333 268.271 287.042 272.588 272.548 z"/>
<path transform="translate(0,0)" fill="rgb(255,248,246)" d="M 193.611 310.739 C 195.433 348.863 211.006 365.77 247.263 376.68 C 242.618 384.273 237.332 393.594 231.662 400.26 C 225.822 405.777 213.768 411.572 206.29 406.602 C 179.039 388.489 181.531 336.403 193.611 310.739 z"/>
<path transform="translate(0,0)" fill="rgb(255,248,246)" d="M 210.267 298.328 C 227.038 301.65 237.452 308.95 249.421 320.756 C 249.562 330.215 249.823 338.561 250.69 348.028 C 251.233 353.963 252.625 362.298 252.485 367.917 C 219.303 356.229 203.084 333.651 210.267 298.328 z"/>
<path transform="translate(0,0)" fill="rgb(255,248,246)" d="M 243.841 268.212 C 250.017 267.48 254.54 267.769 260.738 267.991 L 251.155 305.644 C 247.735 302.595 244.609 300.587 240.847 298.044 C 231.442 292.847 225.302 290.571 214.949 287.87 C 223.259 276.281 230.338 271.666 243.841 268.212 z"/>
<path transform="translate(0,0)" fill="rgb(255,248,246)" d="M 289.054 395.604 C 292.502 394.995 294.775 394.113 297.822 395.615 C 300.364 399.991 298.842 407.275 295.015 409.459 L 293.478 407.739 C 289.807 404.165 282.379 399.612 277.832 396.615 C 281.752 396.388 285.153 396.056 289.054 395.604 z"/>
<path transform="translate(0,0)" fill="url(#Gradient8)" d="M 425.255 510.052 C 427.136 510.017 429.091 510.081 430.979 510.11 C 431.44 510.558 432.099 510.867 432.364 511.453 C 433.579 514.131 432.493 523.77 432.612 527.082 C 433.506 552.021 448.24 573.892 467.097 589.167 C 535.266 644.39 669.854 609.019 721.85 665.295 C 731.691 675.946 736.385 688.108 736.753 702.573 C 737.429 729.117 727.826 758.586 721.759 784.313 C 709.526 835.385 695.894 886.112 680.878 936.436 C 659.297 1007.36 634.594 1066.59 631.056 1141.96 C 626.03 1249.03 670.005 1296.2 748.478 1358.25 C 790.245 1392.38 833.168 1425.86 870.219 1465.23 C 878.044 1473.54 883.983 1481.42 890.061 1490.98 C 902.573 1510.67 901.205 1532.13 900.157 1554.53 C 898.233 1595.66 893.291 1637.82 876.455 1675.84 C 873.727 1682 869.475 1691.18 864.492 1695.75 C 860.792 1696.18 858.912 1696.72 855.411 1695.75 C 855.417 1690.06 863.971 1674.85 866.558 1668.65 C 873.428 1652.19 877.648 1635.29 880.678 1617.76 C 885.583 1589.39 891.661 1540.01 883.543 1512.6 C 862.669 1442.13 698.959 1351.16 649.466 1280.12 C 605.706 1217.32 613.395 1127.79 631.077 1057.4 C 641.026 1017.79 655.335 979.15 666.994 940.007 C 677.346 904.692 687.234 869.242 696.656 833.667 C 705.276 801.339 713.647 769.404 719.675 736.573 C 726.699 698.324 723.666 674.341 687.625 654.958 C 639.973 629.331 587.443 632.906 535.647 625.33 C 481.572 617.42 410.918 581.725 419.381 517.042 C 419.956 512.592 421.981 511.978 425.255 510.052 z"/>
<path transform="translate(0,0)" fill="url(#Gradient7)" d="M 1215.69 708.711 C 1229.02 712.134 1229.66 723.915 1227.35 735.365 C 1212.06 811.101 1182.08 883.482 1164.75 958.76 C 1160.69 976.423 1156.36 994.011 1159.53 1012.12 L 1158.34 1013.68 C 1147.39 1014.33 1144.19 997.227 1145.27 989.134 C 1153.61 926.53 1177.61 861.701 1195.72 801.635 C 1203.08 777.771 1209.49 753.625 1214.94 729.254 C 1192.45 757.82 1131.91 888.162 1107.44 895.514 C 1087.19 901.6 1084.74 857.14 1068.1 848.329 C 1062.64 845.437 1056.5 845.593 1050.77 847.572 C 1014.16 860.209 974.244 936.253 958.332 969.716 C 955.294 976.512 950.399 981.915 943.051 977.325 C 926.119 966.752 946.273 934.401 952.261 922.722 C 970.801 886.726 996.12 851.834 1004.03 811.497 C 1006.36 797.514 1002.16 772.804 982.369 779.441 C 950.794 790.031 916.206 815.404 899.401 843.968 C 907.55 843.588 916.056 841.882 919.708 850.917 C 917.935 858.093 904.827 856.219 900.368 854.313 C 855.023 834.935 937.852 783.062 953.917 776.337 C 975.557 767.278 1000.72 761.843 1011.73 787.682 C 1023.46 815.218 1008.3 847.145 998.311 872.439 C 1011.56 854.839 1037.65 827.711 1062.2 836.531 C 1082.7 843.892 1092.52 865.507 1100.98 883.9 C 1140.05 849.983 1178.39 730.318 1215.69 708.711 z"/>
<path transform="translate(0,0)" fill="url(#Gradient6)" d="M 1316.48 325.924 C 1334.58 325.848 1332.12 344.248 1329.52 356.85 C 1311.55 443.753 1273.16 526.321 1261.1 614.521 C 1260.33 620.144 1263.5 626.782 1262.25 630.558 C 1262.01 630.559 1261.78 630.56 1261.54 630.561 C 1242.33 627.514 1248.82 595.658 1251.47 583.074 C 1266.71 510.732 1293.93 441.554 1312.42 370.068 C 1314.64 361.479 1316.26 353.055 1317.73 344.326 C 1295.69 379.205 1277.07 414.639 1256.93 450.47 C 1248.59 465.308 1225.9 508.665 1209.91 512.323 C 1185.38 517.932 1188.44 449.123 1154.32 463.754 C 1114.62 482.87 1082.25 542.85 1064.02 580.449 C 1062.37 584.234 1060.01 590.862 1056.67 592.965 C 1042.4 601.943 1037.07 582.456 1040.58 572.387 C 1050.74 543.304 1068.32 517.394 1082.36 490.242 C 1095.14 465.524 1112.93 434.435 1105.75 405.956 C 1102.98 391.735 1087.65 394.018 1077.32 398.7 C 1050.6 410.808 1015.17 433.631 1003.14 460.915 C 1010.52 460.265 1021.33 458.664 1022.95 468.593 L 1021.31 470.634 C 1009.72 475.605 985.998 467.827 990.252 452.858 C 996.616 431.736 1019.31 415.326 1036.96 403.623 C 1057.67 389.895 1097.04 371.286 1113.28 401.314 C 1130.05 432.316 1108.59 460.961 1101.69 489.317 C 1120.82 462.859 1153.47 433.525 1183.74 465.461 C 1193.47 475.723 1198.23 487.746 1203.47 500.596 C 1233.97 472.333 1259.66 408.733 1281.64 372.297 C 1291.77 355.523 1299.7 337.805 1316.48 325.924 z"/>
<path transform="translate(0,0)" fill="url(#Gradient5)" d="M 1441.99 1222.47 C 1455.02 1228.79 1453.83 1233.63 1447.2 1246.15 C 1442.5 1255.03 1438 1262.39 1434.26 1271.79 C 1437.35 1268.67 1440.48 1265.57 1443.63 1262.51 C 1454.52 1251.94 1476.34 1229.65 1491.9 1230.58 C 1514.28 1231.93 1506.88 1270.7 1505.75 1284.9 C 1520.85 1278.62 1547.7 1260.33 1558.6 1247.75 C 1567.71 1237.23 1566.48 1210.53 1584.07 1232.08 C 1578.94 1243.89 1569.94 1260.21 1563.89 1272.03 C 1570.18 1265.85 1576.58 1259.79 1583.09 1253.84 C 1592.25 1245.56 1609.24 1229.32 1622.08 1230.76 C 1644.56 1233.29 1637.46 1270.46 1635.95 1284.89 C 1659.08 1275.18 1682.19 1254.57 1700.53 1237.89 C 1708.39 1231.62 1718.78 1225.29 1729.14 1226.26 C 1735.7 1226.87 1742.05 1233.07 1741.22 1239.65 C 1738.89 1241.89 1740.26 1241.28 1736.91 1241.4 C 1734.39 1239.78 1733.81 1239.36 1730.97 1238.14 C 1717.9 1241.26 1688.17 1263.53 1696.5 1277.64 C 1705.3 1279.28 1737.01 1248.35 1744.9 1240.88 C 1749.27 1236.73 1755.05 1245.07 1756.99 1247.93 C 1756.15 1256.28 1753.52 1268.67 1758.66 1275.17 C 1761.7 1276.71 1762.9 1276.1 1766.27 1275.43 C 1790.78 1267.33 1799.12 1257.16 1817 1249.09 C 1821.9 1249.1 1826.28 1253.96 1826.79 1258.76 C 1821.76 1265.72 1797.02 1278.9 1788.74 1282.24 C 1766.52 1291.21 1750.91 1288.47 1742.48 1264.62 C 1724.39 1281.66 1701.55 1303.5 1682.96 1274.59 C 1672.87 1282.63 1647.91 1300.44 1634.41 1291.43 C 1620.38 1282.07 1624.3 1256.24 1625.17 1241.54 C 1600.12 1255.4 1580.68 1278.85 1559.47 1297.85 C 1553.8 1302.93 1547.82 1309.07 1539.84 1308.71 C 1531.12 1303.39 1537.08 1290.89 1540.18 1283.94 C 1532.53 1288.26 1521.94 1293.87 1513.08 1293.32 C 1488.17 1291.78 1493.93 1257.96 1495.07 1241.92 C 1473.29 1252.14 1455.28 1274.06 1437.6 1290.05 C 1430.64 1296.34 1418.43 1311.99 1408.43 1306.46 C 1399.13 1301.33 1408.57 1289.97 1410.77 1282.93 C 1420.64 1263.7 1430.61 1240.58 1441.99 1222.47 z"/>
<path transform="translate(0,0)" fill="url(#Gradient4)" d="M 521.524 212.4 C 546.87 210.575 578.507 219.103 601.299 230.586 C 571.233 240.347 574.413 253.205 561.663 279.251 C 556.148 290.517 549.741 300.004 540.76 309.254 C 528.276 322.114 508.2 323.755 496.218 336.775 C 482.602 359.347 485.413 386.089 457.422 402.542 C 428.855 419.334 393.718 401.29 363.132 393.06 C 357.413 413.883 350.903 431.651 335.657 448.898 C 321.411 465.015 299.637 473.824 278.405 476.995 C 276.708 477.249 276.946 476.904 275.51 475.586 C 280.736 472.089 296.728 469.745 305.789 464.468 C 323.274 454.284 333.567 438.388 341.083 419.928 C 344.846 410.685 346.297 402.482 351.283 393.684 C 352.194 392.65 354.348 390.321 355.393 389.75 C 370.89 381.276 408.35 399.69 427.158 402.391 C 471.841 408.806 467.245 361.213 484.231 336.779 C 492.803 324.449 516.416 322.987 530.026 308.594 C 555.892 281.238 550.862 253.635 582.213 232.089 C 562.533 225.553 547.282 220.516 526.447 218.469 C 462.393 212.175 499.397 273.451 464.069 301.968 C 459.222 305.88 445.764 315.354 439.385 314.719 C 439.477 310.636 455.18 300.215 458.203 294.542 C 479.561 254.465 457.743 217.065 521.524 212.4 z"/>
<path transform="translate(0,0)" fill="url(#Gradient3)" d="M 567.996 165.337 C 574.223 172.458 596.95 200.046 587.587 209.253 C 577.836 211.179 562.558 196.119 553.34 191.712 C 529.487 180.309 470.405 155.116 452.55 188.023 C 429.132 231.183 451.472 288.487 416.278 330.083 C 393.832 356.614 361.815 358.893 332.121 341.848 C 329.94 340.594 326.621 337.819 326.093 335.275 C 328.163 332.677 328.416 332.779 331.865 332.021 C 340.165 330.197 345.585 336.194 352.948 339.179 C 396.302 356.755 419.222 314.984 423.893 278.28 C 429.055 237.724 421.274 170.474 476.374 163.508 C 498.201 160.646 523.667 168.014 544.454 175.179 C 551.081 177.463 557.932 182.586 565.065 184.129 L 564.801 181.13 C 563.815 175.013 558.277 173.448 561.147 166.134 C 564.873 164.28 563.364 164.727 567.996 165.337 z"/>
<path transform="translate(0,0)" fill="url(#Gradient2)" d="M 588.228 252.034 C 592.155 251.592 593.813 250.929 597.008 252.802 C 599.894 255.964 601.689 265.143 602.622 269.488 C 608.301 295.931 603.076 318.078 591.063 341.704 C 587.581 348.551 584.095 357.888 583.404 365.687 C 581.005 380.334 602.183 389.957 603.064 402.367 C 604.28 419.512 580.21 430.65 593.524 449.975 C 594.349 451.173 591.776 453.802 590.674 455.121 C 587.524 455.787 581.424 456.146 579.226 453.345 C 568.528 439.717 586.072 419.992 588.538 407.105 C 590.316 397.815 569.774 385.366 570.198 374.687 C 568.504 346.782 588.112 331.209 590.62 302.58 C 592.413 282.104 589.402 278.398 585.549 258.407 C 584.992 255.515 586.684 254.024 588.228 252.034 z"/>
<path transform="translate(0,0)" fill="url(#Gradient1)" d="M 585.229 461.04 L 587.048 461.886 C 587.575 464.548 584.37 466.568 582.027 470.975 C 581.91 479.884 585.397 485.137 589.251 493.101 L 577.737 497.14 C 574.882 508.789 576.631 532.134 570.216 540.216 C 538.036 580.765 450.194 520.294 423.295 501.797 C 420.143 499.284 420.345 500.27 419.789 497.217 C 422.136 494.428 426.406 493.591 430.095 492.376 C 461.436 514.491 497.976 538.041 535.721 546.61 C 564.698 553.188 561.007 528.02 562.678 509.016 C 563.387 500.954 566.087 496.688 572.649 491.97 C 567.23 476.512 566.03 464.957 585.229 461.04 z"/>
<path transform="translate(0,0)" fill="rgb(138,107,62)" d="M 1262.58 796.353 C 1284.05 803.301 1265.52 821.763 1257.42 833.633 C 1251.61 832.459 1249.32 829.264 1245.32 825.025 C 1248.77 817.361 1257.76 803.939 1262.58 796.353 z"/>
<path transform="translate(0,0)" fill="rgb(100,72,31)" d="M 1813.87 796.577 C 1820.46 798.807 1821.68 800.755 1826.06 805.969 C 1820.3 815.374 1814.8 824.396 1808.61 833.527 C 1786.15 829.351 1807.21 806.254 1813.87 796.577 z"/>
</svg>